<mxfile host="app.diagrams.net" modified="2023-05-11T23:22:52.222Z" agent="5.0 (Macintosh; Intel Mac OS X 10_15_7) AppleWebKit/537.36 (KHTML, like Gecko) Chrome/113.0.0.0 Safari/537.36" etag="U_r-TrB1i2jvi2uV1SX2" version="20.3.0" type="github">
  <diagram name="Page-1" id="ad52d381-51e7-2e0d-a935-2d0ddd2fd229">
    <mxGraphModel dx="1426" dy="826" grid="1" gridSize="10" guides="1" tooltips="1" connect="1" arrows="1" fold="1" page="1" pageScale="1" pageWidth="1100" pageHeight="850" background="none" math="0" shadow="0">
      <root>
        <mxCell id="0" />
        <mxCell id="1" parent="0" />
        <mxCell id="2c924340bb9dbf6c-2" value="Realizar transação PIX" style="ellipse;whiteSpace=wrap;html=1;rounded=1;shadow=1;comic=0;labelBackgroundColor=none;strokeWidth=2;fontFamily=Verdana;fontSize=12;align=center;" parent="1" vertex="1">
          <mxGeometry x="260" y="110" width="120" height="80" as="geometry" />
        </mxCell>
        <mxCell id="2c924340bb9dbf6c-10" value="&lt;span&gt;Destinatário&lt;/span&gt;" style="whiteSpace=wrap;html=1;rounded=1;shadow=1;comic=0;labelBackgroundColor=none;strokeWidth=2;fontFamily=Verdana;fontSize=12;align=center;arcSize=50;" parent="1" vertex="1">
          <mxGeometry x="320" y="40" width="100" height="20" as="geometry" />
        </mxCell>
        <mxCell id="2c924340bb9dbf6c-27" value="Dados do destinatário" style="edgeStyle=none;rounded=1;html=1;labelBackgroundColor=none;startArrow=none;startFill=0;startSize=5;endArrow=classicThin;endFill=1;endSize=5;jettySize=auto;orthogonalLoop=1;strokeColor=#B3B3B3;strokeWidth=1;fontFamily=Verdana;fontSize=12" parent="1" source="2c924340bb9dbf6c-2" target="2c924340bb9dbf6c-10" edge="1">
          <mxGeometry relative="1" as="geometry" />
        </mxCell>
        <mxCell id="2c924340bb9dbf6c-55" value="&lt;span&gt;Sistema&lt;/span&gt;" style="whiteSpace=wrap;html=1;rounded=1;shadow=1;comic=0;labelBackgroundColor=none;strokeWidth=2;fontFamily=Verdana;fontSize=12;align=center;arcSize=50;" parent="1" vertex="1">
          <mxGeometry x="440" y="180" width="100" height="20" as="geometry" />
        </mxCell>
        <mxCell id="2c924340bb9dbf6c-56" value="&lt;span&gt;Usuário&lt;/span&gt;" style="whiteSpace=wrap;html=1;rounded=1;shadow=1;comic=0;labelBackgroundColor=none;strokeWidth=2;fontFamily=Verdana;fontSize=12;align=center;arcSize=50;" parent="1" vertex="1">
          <mxGeometry x="270" y="240" width="100" height="20" as="geometry" />
        </mxCell>
        <mxCell id="2c924340bb9dbf6c-61" value="Procedimentos para conferência e transferência" style="edgeStyle=none;rounded=1;html=1;labelBackgroundColor=none;startArrow=none;startFill=0;startSize=5;endArrow=classicThin;endFill=1;endSize=5;jettySize=auto;orthogonalLoop=1;strokeColor=#B3B3B3;strokeWidth=1;fontFamily=Verdana;fontSize=12" parent="1" source="2c924340bb9dbf6c-2" target="2c924340bb9dbf6c-55" edge="1">
          <mxGeometry x="1" y="124" relative="1" as="geometry">
            <mxPoint x="94" y="101" as="offset" />
          </mxGeometry>
        </mxCell>
        <mxCell id="2c924340bb9dbf6c-62" value="Dados do usuário" style="edgeStyle=none;rounded=1;html=1;labelBackgroundColor=none;startArrow=none;startFill=0;startSize=5;endArrow=classicThin;endFill=1;endSize=5;jettySize=auto;orthogonalLoop=1;strokeColor=#B3B3B3;strokeWidth=1;fontFamily=Verdana;fontSize=12" parent="1" source="2c924340bb9dbf6c-2" target="2c924340bb9dbf6c-56" edge="1">
          <mxGeometry relative="1" as="geometry" />
        </mxCell>
      </root>
    </mxGraphModel>
  </diagram>
</mxfile>
